HIERARCHY
ROOT RootJoint
{
    OFFSET   0.000000   0.000000   0.000000
    CHANNELS 6 Xposition Yposition Zposition Xrotation Yrotation Zrotation
    JOINT pelvis_lowerback
    {
        OFFSET   0.000000   0.093605   0.000000
        CHANNELS 3 Xrotation Yrotation Zrotation
        JOINT lowerback_torso
        {
            OFFSET   0.000000   0.100000   0.000000
            CHANNELS 3 Xrotation Yrotation Zrotation
            JOINT torso_head
            {
                OFFSET   0.000000   0.282350   0.000000
                CHANNELS 3 Xrotation Yrotation Zrotation
                End Site
                {
                    OFFSET   0.000000   0.192650   0.000000
                }
            }
            JOINT rTorso_Clavicle
            {
                OFFSET  -0.001000   0.157500   0.000000
                CHANNELS 3 Xrotation Yrotation Zrotation
                JOINT rShoulder
                {
                    OFFSET  -0.117647   0.000000   0.000000
                    CHANNELS 3 Xrotation Yrotation Zrotation
                    JOINT rElbow
                    {
                        OFFSET  -0.245000   0.000000   0.000000
                        CHANNELS 3 Xrotation Yrotation Zrotation
                        JOINT rWrist
                        {
                            OFFSET  -0.240000   0.000000   0.000000
                            CHANNELS 3 Xrotation Yrotation Zrotation
                            End Site
                            {
                                OFFSET  -0.116353  -0.002500   0.000000
                            }
                        }
                    }
                }
            }
            JOINT lTorso_Clavicle
            {
                OFFSET   0.001000   0.157500   0.000000
                CHANNELS 3 Xrotation Yrotation Zrotation
                JOINT lShoulder
                {
                    OFFSET   0.117647   0.000000   0.000000
                    CHANNELS 3 Xrotation Yrotation Zrotation
                    JOINT lElbow
                    {
                        OFFSET   0.245000   0.000000   0.000000
                        CHANNELS 3 Xrotation Yrotation Zrotation
                        JOINT lWrist
                        {
                            OFFSET   0.240000   0.000000   0.000000
                            CHANNELS 3 Xrotation Yrotation Zrotation
                            End Site
                            {
                                OFFSET   0.116353  -0.002500   0.000000
                            }
                        }
                    }
                }
            }
        }
    }
    JOINT rHip
    {
        OFFSET  -0.100000  -0.051395   0.000000
        CHANNELS 3 Xrotation Yrotation Zrotation
        JOINT rKnee
        {
            OFFSET   0.000000  -0.410000   0.000000
            CHANNELS 3 Xrotation Yrotation Zrotation
            JOINT rAnkle
            {
                OFFSET   0.000000  -0.390000   0.000000
                CHANNELS 3 Xrotation Yrotation Zrotation
                JOINT rToeJoint
                {
                    OFFSET   0.000000  -0.050000   0.130000
                    CHANNELS 3 Xrotation Yrotation Zrotation
                    End Site
                    {
                        OFFSET  -0.010000   0.002000   0.060000
                    }
                }
            }
        }
    }
    JOINT lHip
    {
        OFFSET   0.100000  -0.051395   0.000000
        CHANNELS 3 Xrotation Yrotation Zrotation
        JOINT lKnee
        {
            OFFSET   0.000000  -0.410000   0.000000
            CHANNELS 3 Xrotation Yrotation Zrotation
            JOINT lAnkle
            {
                OFFSET   0.000000  -0.390000   0.000000
                CHANNELS 3 Xrotation Yrotation Zrotation
                JOINT lToeJoint
                {
                    OFFSET   0.000000  -0.050000   0.130000
                    CHANNELS 3 Xrotation Yrotation Zrotation
                    End Site
                    {
                        OFFSET   0.010000   0.002000   0.060000
                    }
                }
            }
        }
    }
}
MOTION
Frames: 12
Frame Time:   0.008333
 -2.376719   0.925631   3.975860   0.000000   0.000000   0.000000   0.000000   0.000000   0.000000   0.000000   0.000000   0.000000   0.000000   0.000000   0.000000   0.000000   0.000000   0.000000   0.000000   0.000000   0.000000   0.000000   0.000000   0.000000   0.000000   0.000000   0.000000   0.000000   0.000000   0.000000   0.000000   0.000000   0.000000   0.000000   0.000000   0.000000   0.000000   0.000000   0.000000   0.000000   0.000000   0.000000   0.000000   0.000000   0.000000   0.000000   0.000000   0.000000   0.000000   0.000000   0.000000   0.000000   0.000000   0.000000   0.000000   0.000000   0.000000   0.000000   0.000000   0.000000   0.000000   0.000000   0.000000
 -2.376990   0.925939   3.970992   1.598777  -0.031228  -0.248773  -2.507310  -0.157477   0.179411   2.313023  -0.436240   0.080310  -1.703873   0.076372  -0.006090   0.675650   0.981218   0.990835   0.982589   0.987557   0.861964   0.000000  -0.000000  -0.000000   0.210221  -1.951456  -2.696760  -0.035697  -0.734573   0.016772  -0.374317   1.003523  -1.966223   0.018051  -1.058473   0.009394  -0.001246   1.052651   2.367703  -2.688851  -0.129430   0.313919   0.732932  -0.000424  -0.000946  -0.649158  -0.176986   0.225491   0.217131  -0.000554  -0.000612  -2.523001  -0.187293   0.300326   0.020482  -0.000009  -0.000037  -0.445650   0.163837  -0.480856   1.417917   0.005331  -0.000674
 -2.377317   0.926505   3.963037   3.052375  -0.048198  -0.543245  -4.389416  -0.342878   0.346540   4.964786  -0.860842   0.221006  -3.365085   0.126928  -0.011428   1.309009   2.524702   2.569373   1.890669   2.319228   2.097430   0.001619   0.061782  -0.002047   0.424344  -3.604669  -4.889108  -0.056095  -1.858298  -0.509998  -0.699450   1.642220  -4.247080   0.042182  -2.154215   0.026426  -0.016960   1.682260   4.123612  -5.579532  -0.277721   0.673688   1.276768  -0.000691  -0.001323  -1.264073  -0.346996   0.434139   0.368852  -0.000825  -0.000860  -5.342597  -0.398070   0.638840  -0.163598   0.000073   0.000270  -0.871586   0.321863  -0.927958   2.700120   0.008783  -0.001423
 -2.377651   0.927047   3.953045   4.336932   0.001808  -0.852705  -5.750159  -0.527265   0.493756   7.897155  -1.267772   0.395196  -4.896239   0.170228  -0.018551   1.848228   4.477927   4.466274   2.698099   3.870471   3.475613   0.006387   0.221172  -0.007619   0.643963  -4.688875  -6.474312  -0.097265  -3.289059  -1.331740  -0.994973   1.957769  -6.629628   0.067899  -3.280880   0.048155  -0.000034   1.761486   5.280719  -8.492303  -0.437645   1.024468   1.662340  -0.000773  -0.001157  -1.843887  -0.508508   0.626464   0.489802  -0.000948  -0.000869  -8.416164  -0.625947   0.962817  -0.130886   0.000048   0.000187  -1.278793   0.472300  -1.344302   3.845911   0.010929  -0.001494
 -2.378010   0.927402   3.941919   5.513271   0.116575  -1.176918  -6.748916  -0.695503   0.628888  11.025372  -1.653008   0.599196  -6.297958   0.210053  -0.027572   2.263067   6.745032   6.524369   3.402762   5.563253   4.858271   0.013427   0.454828  -0.015487   0.906951  -5.241411  -7.696287  -0.184892  -4.929511  -2.279914  -1.279468   2.028236  -8.991281   0.092308  -4.419882   0.071293   0.072545   1.353752   6.062890 -11.377862  -0.604564   1.354246   1.927906  -0.000740  -0.000782  -2.389264  -0.661163   0.803950   0.589326  -0.000980  -0.000749 -11.615953  -0.867232   1.261300  -0.104717   0.000032   0.000146  -1.657586   0.615629  -1.732112   4.901165   0.012255  -0.001080
 -2.378426   0.927465   3.930351   6.629473   0.322222  -1.524797  -7.497707  -0.851083   0.763390  14.269585  -2.015619   0.843496  -7.582706   0.246624  -0.039620   2.523505   9.209639   8.643402   4.007293   7.335796   6.187438   0.021638   0.740428  -0.024180   1.223207  -5.375542  -8.725072  -0.334728  -6.697580  -3.262637  -1.565963   1.922603 -11.265863   0.113819  -5.552608   0.093076   0.201105   0.571473   6.638477 -14.195607  -0.777804   1.656986   2.102929  -0.000648  -0.000354  -2.901681  -0.805455   0.967721   0.670896  -0.000952  -0.000550 -14.907926  -1.122467   1.527436  -0.083781   0.000022   0.000136  -2.012078   0.751352  -2.093704   5.865116   0.012967  -0.000109
 -2.378908   0.927136   3.918890   7.719637   0.639350  -1.909860  -8.082966  -0.992102   0.916667  17.571580  -2.343419   1.151030  -8.763069   0.280012  -0.057244   2.608780  11.714186  10.727921   4.515423   9.150469   7.468033   0.030217   1.062855  -0.032556   1.590063  -5.186237  -9.614393  -0.553510  -8.525239  -4.244688  -1.861134   1.697915 -13.429681   0.131742  -6.663709   0.111519   0.376441  -0.478174   7.095805 -16.911933  -0.954552   1.927681   2.212442  -0.000534   0.000019  -3.382856  -0.941616   1.118903   0.735638  -0.000884  -0.000314 -18.263434  -1.389796   1.753427  -0.067031   0.000016   0.000144  -2.343685   0.879452  -2.431074   6.743930   0.013262   0.001402
 -2.379578   0.926003   3.907680   9.135235   0.631732  -2.294962  -9.916970  -0.935809   1.100356  21.820634  -2.427617   1.404930 -10.239218   0.334835  -0.019431   2.162606  14.724898  12.761839   4.158504  10.649795   8.154339   0.019567   0.932526  -0.022263   2.048279  -4.878102  -9.657845  -1.601324 -10.440381  -5.331707  -2.838792   1.008305 -14.862788   0.120813  -7.162260   0.100383   0.455415  -1.223334   7.037148 -20.965206  -1.378015   2.246682   5.469715  -0.001810  -0.004566  -3.964919  -1.236370   0.783246   0.674455  -0.000865  -0.000004 -22.748922  -1.618660   2.058549   3.013148  -0.001435   0.001349  -2.466170   1.053968  -2.505925   7.535036   0.010943   0.002383
 -2.380370   0.923943   3.897889  10.441758   0.541436  -2.654447 -11.856137  -0.838341   1.270089  25.960936  -2.440440   1.632956 -11.618869   0.390069   0.023044   1.554204  17.681000  14.597126   3.788919  12.152111   8.677625   0.012605   0.837671  -0.015404   2.480585  -4.548599  -9.839044  -2.673829 -12.343272  -6.298716  -3.804497   0.281133 -16.121311   0.111088  -7.662310   0.090174   0.508226  -1.970410   7.120251 -24.867745  -1.844557   2.547529   9.117806  -0.004077  -0.011379  -4.476756  -1.516991   0.466137   0.713388  -0.000599  -0.000188 -26.965718  -1.874484   2.388908   6.386052  -0.003799   0.000569  -2.538711   1.216562  -2.575481   8.412930   0.008727   0.002952
 -2.381258   0.920954   3.889297  11.769989   0.447874  -2.998183 -13.903150  -0.747829   1.424568  29.907825  -2.432533   1.849056 -12.927547   0.441350   0.066038   0.836109  20.479661  16.323966   3.419735  13.604256   9.121607   0.008086   0.771920  -0.010879   2.917947  -4.139106 -10.173286  -3.739213 -14.151404  -7.201330  -4.734795  -0.420505 -17.272240   0.102386  -8.150674   0.080649   0.575365  -2.790241   7.302840 -28.650138  -2.329302   2.813655  12.702204  -0.006818  -0.016087  -4.947165  -1.777587   0.167526   0.777433  -0.000343  -0.000434 -31.006569  -2.155093   2.723188   9.666498  -0.006654   0.000530  -2.597053   1.367385  -2.640575   9.251805   0.006669   0.003492
 -2.382209   0.917072   3.881679  13.116588   0.357522  -3.325876 -15.993133  -0.668148   1.563680  33.691107  -2.414797   2.056833 -14.173503   0.488588   0.108458   0.036394  23.094408  17.989785   3.055014  14.982471   9.525221   0.005009   0.722192  -0.007742   3.351257  -3.691809 -10.589885  -4.786781 -15.840428  -8.067861  -5.623508  -1.074508 -18.344051   0.094474  -8.616683   0.071881   0.649700  -3.636874   7.531703 -32.319352  -2.822853   3.040732  16.109641  -0.009471  -0.018622  -5.384232  -2.018416  -0.113533   0.843857  -0.000151  -0.000615 -34.880467  -2.451727   3.051786  12.771183  -0.009447   0.001350  -2.649060   1.508281  -2.701039  10.027429   0.004858   0.004013
 -2.383159   0.912300   3.874887  14.451355   0.238788  -3.617994 -18.004262  -0.587109   1.684614  37.234293  -2.381423   2.242847 -15.342499   0.532333   0.148247  -0.819711  25.516876  19.630435   2.697798  16.274795   9.917939   0.002792   0.679852  -0.005479   3.773755  -3.244313 -11.023167  -5.805428 -17.398146  -8.922673  -6.465272  -1.666954 -19.359084   0.087128  -9.053010   0.063768   0.724682  -4.462582   7.762865 -35.886152  -3.318743   3.223316  19.333115  -0.011886  -0.020534  -5.791903  -2.240568  -0.377835   0.905925  -0.000021  -0.000738 -38.542739  -2.753256   3.364725  15.663423  -0.011775   0.001840  -2.696723   1.640556  -2.756916  10.021943   0.003887   0.003206
